%TF.GenerationSoftware,KiCad,Pcbnew,(5.1.6)-1*%
%TF.CreationDate,2024-03-17T16:58:36-04:00*%
%TF.ProjectId,floppy-coaster,666c6f70-7079-42d6-936f-61737465722e,rev?*%
%TF.SameCoordinates,Original*%
%TF.FileFunction,Legend,Top*%
%TF.FilePolarity,Positive*%
%FSLAX46Y46*%
G04 Gerber Fmt 4.6, Leading zero omitted, Abs format (unit mm)*
G04 Created by KiCad (PCBNEW (5.1.6)-1) date 2024-03-17 16:58:36*
%MOMM*%
%LPD*%
G01*
G04 APERTURE LIST*
%ADD10C,0.120000*%
%ADD11C,0.100000*%
%ADD12C,0.010000*%
G04 APERTURE END LIST*
D10*
X110045500Y-150177500D02*
X181991000Y-150177500D01*
X180022500Y-96139000D02*
G75*
G02*
X181991000Y-98107500I0J-1968500D01*
G01*
X112014000Y-96139000D02*
X180022500Y-96139000D01*
X181991000Y-150177500D02*
X181991000Y-98107500D01*
X110045500Y-98107500D02*
G75*
G02*
X112014000Y-96139000I1968500J0D01*
G01*
X110045500Y-150177500D02*
X110045500Y-98107500D01*
D11*
G36*
X163639500Y-89090500D02*
G01*
X151638000Y-89090500D01*
X151638000Y-86741000D01*
X163639500Y-86741000D01*
X163639500Y-89090500D01*
G37*
X163639500Y-89090500D02*
X151638000Y-89090500D01*
X151638000Y-86741000D01*
X163639500Y-86741000D01*
X163639500Y-89090500D01*
G36*
X163639500Y-61658500D02*
G01*
X151574500Y-61658500D01*
X151574500Y-57150000D01*
X163703000Y-57150000D01*
X163639500Y-61658500D01*
G37*
X163639500Y-61658500D02*
X151574500Y-61658500D01*
X151574500Y-57150000D01*
X163703000Y-57150000D01*
X163639500Y-61658500D01*
G36*
X171132500Y-87058500D02*
G01*
X171069000Y-87566500D01*
X170878500Y-88011000D01*
X170688000Y-88328500D01*
X170307000Y-88709500D01*
X169926000Y-88900000D01*
X169481500Y-89090500D01*
X163639500Y-89090500D01*
X163703000Y-57150000D01*
X171132500Y-57150000D01*
X171132500Y-87058500D01*
G37*
X171132500Y-87058500D02*
X171069000Y-87566500D01*
X170878500Y-88011000D01*
X170688000Y-88328500D01*
X170307000Y-88709500D01*
X169926000Y-88900000D01*
X169481500Y-89090500D01*
X163639500Y-89090500D01*
X163703000Y-57150000D01*
X171132500Y-57150000D01*
X171132500Y-87058500D01*
G36*
X151574500Y-89090500D02*
G01*
X125412500Y-89090500D01*
X124650500Y-88836500D01*
X124206000Y-88455500D01*
X123952000Y-88138000D01*
X123761500Y-87693500D01*
X123634500Y-87185500D01*
X123698000Y-58102500D01*
X123698000Y-57150000D01*
X151574500Y-57150000D01*
X151574500Y-89090500D01*
G37*
X151574500Y-89090500D02*
X125412500Y-89090500D01*
X124650500Y-88836500D01*
X124206000Y-88455500D01*
X123952000Y-88138000D01*
X123761500Y-87693500D01*
X123634500Y-87185500D01*
X123698000Y-58102500D01*
X123698000Y-57150000D01*
X151574500Y-57150000D01*
X151574500Y-89090500D01*
D10*
X112585500Y-89725500D02*
G75*
G02*
X110617000Y-87757000I0J1968500D01*
G01*
X169164000Y-89725500D02*
X112585500Y-89725500D01*
X110617000Y-57150000D02*
X110617000Y-87757000D01*
X171132500Y-87757000D02*
X171132500Y-86677500D01*
X171132500Y-87757000D02*
G75*
G02*
X169164000Y-89725500I-1968500J0D01*
G01*
X163639500Y-86741000D02*
X151574500Y-86741000D01*
X163639500Y-61658500D02*
X163639500Y-86741000D01*
X151574500Y-61658500D02*
X163639500Y-61658500D01*
X151574500Y-86741000D02*
X151574500Y-61658500D01*
X171132500Y-57150000D02*
X171132500Y-87185500D01*
X123634500Y-57150000D02*
X171132500Y-57150000D01*
X123634500Y-87185500D02*
X123634500Y-57150000D01*
X169164000Y-89154000D02*
X125603000Y-89154000D01*
X171132500Y-87185500D02*
G75*
G02*
X169164000Y-89154000I-1968500J0D01*
G01*
X125603000Y-89154000D02*
G75*
G02*
X123634500Y-87185500I0J1968500D01*
G01*
D11*
G36*
X106997500Y-66103500D02*
G01*
X105791000Y-66103500D01*
X105791000Y-63627000D01*
X106997500Y-63627000D01*
X106997500Y-66103500D01*
G37*
X106997500Y-66103500D02*
X105791000Y-66103500D01*
X105791000Y-63627000D01*
X106997500Y-63627000D01*
X106997500Y-66103500D01*
G36*
X107886500Y-63563500D02*
G01*
X104838500Y-63563500D01*
X106426000Y-60896500D01*
X107886500Y-63563500D01*
G37*
X107886500Y-63563500D02*
X104838500Y-63563500D01*
X106426000Y-60896500D01*
X107886500Y-63563500D01*
D12*
%TO.C,REF\u002A\u002A*%
G36*
X185652835Y-64146906D02*
G01*
X185358485Y-64147195D01*
X185256510Y-64147620D01*
X185175855Y-64148908D01*
X185111388Y-64151414D01*
X185057976Y-64155496D01*
X185010488Y-64161508D01*
X184963789Y-64169808D01*
X184929889Y-64176936D01*
X184700049Y-64240254D01*
X184480732Y-64326512D01*
X184273701Y-64434509D01*
X184080720Y-64563044D01*
X183903549Y-64710918D01*
X183743953Y-64876930D01*
X183603693Y-65059879D01*
X183579054Y-65096949D01*
X183527256Y-65183902D01*
X183474355Y-65285320D01*
X183423336Y-65394366D01*
X183377182Y-65504202D01*
X183338875Y-65607988D01*
X183311398Y-65698888D01*
X183305304Y-65724484D01*
X183295939Y-65767479D01*
X185057521Y-65767479D01*
X185057521Y-66706750D01*
X183295939Y-66706750D01*
X183305304Y-66749744D01*
X183330364Y-66841111D01*
X183367852Y-66946969D01*
X183414685Y-67060378D01*
X183467782Y-67174392D01*
X183524060Y-67282069D01*
X183580436Y-67376467D01*
X183589892Y-67390819D01*
X183733634Y-67582291D01*
X183894833Y-67754130D01*
X184072490Y-67905663D01*
X184265609Y-68036219D01*
X184473191Y-68145124D01*
X184694238Y-68231706D01*
X184927755Y-68295294D01*
X184933456Y-68296521D01*
X184986038Y-68307122D01*
X185034458Y-68315013D01*
X185084109Y-68320578D01*
X185140381Y-68324202D01*
X185208668Y-68326269D01*
X185294359Y-68327164D01*
X185365099Y-68327299D01*
X185652833Y-68327276D01*
X185652833Y-69259979D01*
X185365099Y-69258262D01*
X185273124Y-69257209D01*
X185183391Y-69255266D01*
X185101658Y-69252626D01*
X185033679Y-69249481D01*
X184985211Y-69246026D01*
X184978146Y-69245289D01*
X184752737Y-69209094D01*
X184520886Y-69151876D01*
X184288925Y-69075784D01*
X184063185Y-68982965D01*
X183849999Y-68875568D01*
X183794197Y-68843635D01*
X183630656Y-68738167D01*
X183464714Y-68614045D01*
X183302927Y-68476931D01*
X183151850Y-68332482D01*
X183018040Y-68186359D01*
X182981493Y-68142107D01*
X182820173Y-67920512D01*
X182678848Y-67682878D01*
X182558525Y-67431589D01*
X182460211Y-67169032D01*
X182384912Y-66897592D01*
X182333635Y-66619655D01*
X182331090Y-66600916D01*
X182324141Y-66529251D01*
X182319208Y-66438546D01*
X182316292Y-66335423D01*
X182315395Y-66226509D01*
X182316519Y-66118425D01*
X182319666Y-66017798D01*
X182324838Y-65931252D01*
X182330883Y-65873312D01*
X182382839Y-65588394D01*
X182458069Y-65312854D01*
X182555891Y-65048309D01*
X182675621Y-64796377D01*
X182816576Y-64558677D01*
X182978073Y-64336825D01*
X182981493Y-64332579D01*
X183161780Y-64129621D01*
X183360922Y-63943156D01*
X183576473Y-63774714D01*
X183805985Y-63625825D01*
X184047009Y-63498017D01*
X184297100Y-63392822D01*
X184553809Y-63311767D01*
X184654119Y-63287269D01*
X184778030Y-63261438D01*
X184893200Y-63242092D01*
X185007020Y-63228481D01*
X185126885Y-63219856D01*
X185260187Y-63215468D01*
X185371713Y-63214508D01*
X185652833Y-63214250D01*
X185652835Y-64146906D01*
G37*
X185652835Y-64146906D02*
X185358485Y-64147195D01*
X185256510Y-64147620D01*
X185175855Y-64148908D01*
X185111388Y-64151414D01*
X185057976Y-64155496D01*
X185010488Y-64161508D01*
X184963789Y-64169808D01*
X184929889Y-64176936D01*
X184700049Y-64240254D01*
X184480732Y-64326512D01*
X184273701Y-64434509D01*
X184080720Y-64563044D01*
X183903549Y-64710918D01*
X183743953Y-64876930D01*
X183603693Y-65059879D01*
X183579054Y-65096949D01*
X183527256Y-65183902D01*
X183474355Y-65285320D01*
X183423336Y-65394366D01*
X183377182Y-65504202D01*
X183338875Y-65607988D01*
X183311398Y-65698888D01*
X183305304Y-65724484D01*
X183295939Y-65767479D01*
X185057521Y-65767479D01*
X185057521Y-66706750D01*
X183295939Y-66706750D01*
X183305304Y-66749744D01*
X183330364Y-66841111D01*
X183367852Y-66946969D01*
X183414685Y-67060378D01*
X183467782Y-67174392D01*
X183524060Y-67282069D01*
X183580436Y-67376467D01*
X183589892Y-67390819D01*
X183733634Y-67582291D01*
X183894833Y-67754130D01*
X184072490Y-67905663D01*
X184265609Y-68036219D01*
X184473191Y-68145124D01*
X184694238Y-68231706D01*
X184927755Y-68295294D01*
X184933456Y-68296521D01*
X184986038Y-68307122D01*
X185034458Y-68315013D01*
X185084109Y-68320578D01*
X185140381Y-68324202D01*
X185208668Y-68326269D01*
X185294359Y-68327164D01*
X185365099Y-68327299D01*
X185652833Y-68327276D01*
X185652833Y-69259979D01*
X185365099Y-69258262D01*
X185273124Y-69257209D01*
X185183391Y-69255266D01*
X185101658Y-69252626D01*
X185033679Y-69249481D01*
X184985211Y-69246026D01*
X184978146Y-69245289D01*
X184752737Y-69209094D01*
X184520886Y-69151876D01*
X184288925Y-69075784D01*
X184063185Y-68982965D01*
X183849999Y-68875568D01*
X183794197Y-68843635D01*
X183630656Y-68738167D01*
X183464714Y-68614045D01*
X183302927Y-68476931D01*
X183151850Y-68332482D01*
X183018040Y-68186359D01*
X182981493Y-68142107D01*
X182820173Y-67920512D01*
X182678848Y-67682878D01*
X182558525Y-67431589D01*
X182460211Y-67169032D01*
X182384912Y-66897592D01*
X182333635Y-66619655D01*
X182331090Y-66600916D01*
X182324141Y-66529251D01*
X182319208Y-66438546D01*
X182316292Y-66335423D01*
X182315395Y-66226509D01*
X182316519Y-66118425D01*
X182319666Y-66017798D01*
X182324838Y-65931252D01*
X182330883Y-65873312D01*
X182382839Y-65588394D01*
X182458069Y-65312854D01*
X182555891Y-65048309D01*
X182675621Y-64796377D01*
X182816576Y-64558677D01*
X182978073Y-64336825D01*
X182981493Y-64332579D01*
X183161780Y-64129621D01*
X183360922Y-63943156D01*
X183576473Y-63774714D01*
X183805985Y-63625825D01*
X184047009Y-63498017D01*
X184297100Y-63392822D01*
X184553809Y-63311767D01*
X184654119Y-63287269D01*
X184778030Y-63261438D01*
X184893200Y-63242092D01*
X185007020Y-63228481D01*
X185126885Y-63219856D01*
X185260187Y-63215468D01*
X185371713Y-63214508D01*
X185652833Y-63214250D01*
X185652835Y-64146906D01*
G36*
X180358687Y-63214815D02*
G01*
X180423170Y-63216475D01*
X180469803Y-63219445D01*
X180490151Y-63222588D01*
X180519917Y-63230565D01*
X180519917Y-64151030D01*
X180310381Y-64143759D01*
X180100547Y-64144023D01*
X179906359Y-64160882D01*
X179721920Y-64195575D01*
X179541332Y-64249339D01*
X179358697Y-64323411D01*
X179282989Y-64359379D01*
X179102438Y-64458477D01*
X178939798Y-64569826D01*
X178787401Y-64698908D01*
X178728122Y-64756205D01*
X178571485Y-64931361D01*
X178435973Y-65122020D01*
X178322266Y-65326894D01*
X178231044Y-65544693D01*
X178162985Y-65774129D01*
X178142826Y-65866697D01*
X178130677Y-65950744D01*
X178122566Y-66053734D01*
X178118485Y-66168465D01*
X178118426Y-66287734D01*
X178122384Y-66404337D01*
X178130351Y-66511071D01*
X178142319Y-66600733D01*
X178143557Y-66607531D01*
X178199411Y-66836259D01*
X178278799Y-67054465D01*
X178380431Y-67260677D01*
X178503022Y-67453428D01*
X178645281Y-67631248D01*
X178805921Y-67792668D01*
X178983655Y-67936219D01*
X179177193Y-68060431D01*
X179385248Y-68163836D01*
X179568737Y-68233035D01*
X179671877Y-68264618D01*
X179766607Y-68288629D01*
X179859370Y-68305963D01*
X179956606Y-68317516D01*
X180064758Y-68324180D01*
X180190267Y-68326852D01*
X180245411Y-68327004D01*
X180519917Y-68326686D01*
X180519917Y-69243664D01*
X180490151Y-69251641D01*
X180464751Y-69254638D01*
X180417756Y-69256703D01*
X180354010Y-69257882D01*
X180278358Y-69258223D01*
X180195646Y-69257774D01*
X180110717Y-69256583D01*
X180028417Y-69254697D01*
X179953591Y-69252163D01*
X179891083Y-69249031D01*
X179845738Y-69245347D01*
X179845229Y-69245289D01*
X179732229Y-69228841D01*
X179604628Y-69204206D01*
X179472162Y-69173583D01*
X179344566Y-69139167D01*
X179263484Y-69114036D01*
X178998947Y-69012998D01*
X178748223Y-68890013D01*
X178512305Y-68746277D01*
X178292180Y-68582987D01*
X178088840Y-68401338D01*
X177903273Y-68202526D01*
X177736470Y-67987747D01*
X177589421Y-67758198D01*
X177463115Y-67515073D01*
X177358542Y-67259570D01*
X177276692Y-66992883D01*
X177218555Y-66716209D01*
X177205338Y-66627375D01*
X177196882Y-66542607D01*
X177191063Y-66438618D01*
X177187882Y-66322509D01*
X177187339Y-66201387D01*
X177189434Y-66082354D01*
X177194166Y-65972514D01*
X177201537Y-65878972D01*
X177205338Y-65846854D01*
X177256259Y-65564206D01*
X177331705Y-65291114D01*
X177431419Y-65028214D01*
X177555146Y-64776137D01*
X177702628Y-64535517D01*
X177781452Y-64424718D01*
X177959730Y-64207223D01*
X178155733Y-64008844D01*
X178368098Y-63830382D01*
X178595459Y-63672633D01*
X178836453Y-63536397D01*
X179089713Y-63422471D01*
X179353877Y-63331653D01*
X179627579Y-63264741D01*
X179818380Y-63233313D01*
X179870854Y-63227990D01*
X179939718Y-63223430D01*
X180020081Y-63219712D01*
X180107050Y-63216913D01*
X180195736Y-63215112D01*
X180281245Y-63214387D01*
X180358687Y-63214815D01*
G37*
X180358687Y-63214815D02*
X180423170Y-63216475D01*
X180469803Y-63219445D01*
X180490151Y-63222588D01*
X180519917Y-63230565D01*
X180519917Y-64151030D01*
X180310381Y-64143759D01*
X180100547Y-64144023D01*
X179906359Y-64160882D01*
X179721920Y-64195575D01*
X179541332Y-64249339D01*
X179358697Y-64323411D01*
X179282989Y-64359379D01*
X179102438Y-64458477D01*
X178939798Y-64569826D01*
X178787401Y-64698908D01*
X178728122Y-64756205D01*
X178571485Y-64931361D01*
X178435973Y-65122020D01*
X178322266Y-65326894D01*
X178231044Y-65544693D01*
X178162985Y-65774129D01*
X178142826Y-65866697D01*
X178130677Y-65950744D01*
X178122566Y-66053734D01*
X178118485Y-66168465D01*
X178118426Y-66287734D01*
X178122384Y-66404337D01*
X178130351Y-66511071D01*
X178142319Y-66600733D01*
X178143557Y-66607531D01*
X178199411Y-66836259D01*
X178278799Y-67054465D01*
X178380431Y-67260677D01*
X178503022Y-67453428D01*
X178645281Y-67631248D01*
X178805921Y-67792668D01*
X178983655Y-67936219D01*
X179177193Y-68060431D01*
X179385248Y-68163836D01*
X179568737Y-68233035D01*
X179671877Y-68264618D01*
X179766607Y-68288629D01*
X179859370Y-68305963D01*
X179956606Y-68317516D01*
X180064758Y-68324180D01*
X180190267Y-68326852D01*
X180245411Y-68327004D01*
X180519917Y-68326686D01*
X180519917Y-69243664D01*
X180490151Y-69251641D01*
X180464751Y-69254638D01*
X180417756Y-69256703D01*
X180354010Y-69257882D01*
X180278358Y-69258223D01*
X180195646Y-69257774D01*
X180110717Y-69256583D01*
X180028417Y-69254697D01*
X179953591Y-69252163D01*
X179891083Y-69249031D01*
X179845738Y-69245347D01*
X179845229Y-69245289D01*
X179732229Y-69228841D01*
X179604628Y-69204206D01*
X179472162Y-69173583D01*
X179344566Y-69139167D01*
X179263484Y-69114036D01*
X178998947Y-69012998D01*
X178748223Y-68890013D01*
X178512305Y-68746277D01*
X178292180Y-68582987D01*
X178088840Y-68401338D01*
X177903273Y-68202526D01*
X177736470Y-67987747D01*
X177589421Y-67758198D01*
X177463115Y-67515073D01*
X177358542Y-67259570D01*
X177276692Y-66992883D01*
X177218555Y-66716209D01*
X177205338Y-66627375D01*
X177196882Y-66542607D01*
X177191063Y-66438618D01*
X177187882Y-66322509D01*
X177187339Y-66201387D01*
X177189434Y-66082354D01*
X177194166Y-65972514D01*
X177201537Y-65878972D01*
X177205338Y-65846854D01*
X177256259Y-65564206D01*
X177331705Y-65291114D01*
X177431419Y-65028214D01*
X177555146Y-64776137D01*
X177702628Y-64535517D01*
X177781452Y-64424718D01*
X177959730Y-64207223D01*
X178155733Y-64008844D01*
X178368098Y-63830382D01*
X178595459Y-63672633D01*
X178836453Y-63536397D01*
X179089713Y-63422471D01*
X179353877Y-63331653D01*
X179627579Y-63264741D01*
X179818380Y-63233313D01*
X179870854Y-63227990D01*
X179939718Y-63223430D01*
X180020081Y-63219712D01*
X180107050Y-63216913D01*
X180195736Y-63215112D01*
X180281245Y-63214387D01*
X180358687Y-63214815D01*
%TD*%
M02*
